<svg height="512" viewBox="0 0 60 60" width="512" xmlns="http://www.w3.org/2000/svg"><g id="045---Lion" fill="none"><g id="Icons"><path id="Shape" d="m59 31.6c.0557785.5131346-.2173992 1.0058443-.6821648 1.2303688-.4647656.2245244-1.020534.1322717-1.3878352-.2303688l-2.62-2.6c.47 4.13 1.24 8.87-1.05 14.42-.173621.4467151-.5927129.750393-1.0712832.7762616-.4785702.0258687-.9279546-.2308645-1.1487168-.6562616-.64-1.27-.23-.47-1.79-3.54-.4656666 3.8338677-1.8592591 7.4963386-4.06 10.67-.2335803.3185713-.6049716.5067879-1 .5067879s-.7664197-.1882166-1-.5067879c-.73-1-.25-.34-2.06-2.71-.0951464 1.0351157-.252093 2.0636172-.47 3.08-.81 3.53-1.8 3.56-3.53 1.71-.7635683-.8589048-1.4558602-1.7786163-2.07-2.75-.1861481.9828047-.4709219 1.9443349-.85 2.87-.7433904 2.1591678-2.2373703 3.9796231-4.21 5.13-.5416967-.2660991-1.0460252-.6023181-1.5-1-2.81-2.51-3.56-7-3.56-7-.6326277 1.0168324-1.3519721 1.9770736-2.15 2.87-1.33 1.39-2.18 1.69-2.93-.08-.5318122-1.5487087-.8677549-3.1578744-1-4.79l-2.06 2.71c-.2335803.3185713-.6049716.5067879-1 .5067879s-.7664197-.1882166-1-.5067879c-2.2021642-3.1868465-3.592465-6.8634198-4.05-10.71-1.83 3.61-1.83 3.75-2.16 4-.30658328.2204765-.69798431.2865519-1.05995485.178939-.36197054-.1076128-.65370418-.3767823-.79004515-.728939-2.32-5.65-1.49-10.61-1.05-14.45l-2.61 2.58c-.3524429.3670389-.89686328.4743533-1.36222928.2685184-.465366-.205835-.75222593-.6808311-.71777072-1.1885184 0 0 0 0 0-.06l.11-1c.33418705-3.0181369 1.53209488-5.8757547 3.45-8.23l1.13-1.37h-3.58c-.3397038.0045948-.65850501-.163595-.84648929-.4465821-.18798429-.2829871-.21943573-.6420593-.08351071-.9534179.86-2 2.7-5.51 5.52-7.6h-2.85c-.50022248.0026234-.94959929-.3053309-1.1276786-.7727891s-.0475003-.9963481.3276786-1.3272109l1.1-1c2.97220799-2.53365079 6.7544778-3.91740804 10.66-3.9l-1.58-2.08c-.2738219-.36506269-.3168817-.85384264-.1111034-1.26115641.2057783-.40731376.624776-.66265841 1.0811034-.65884359 3.65 0 7.22.23 10.1 2.5l.64.5c.8882409-1.24889894 2.1272472-2.2059965 3.56-2.75 1.9244772-.57371796 4.008069-.01706265 5.39 1.44.437422.39187861.8298406.8312533 1.17 1.31l.64-.5c2.87-2.27 6.45-2.5 10.1-2.5.4652159-.02405448.9016895.22555274 1.1168759.63871048.2151863.41315775.1695114.913884-.1168759 1.28128952l-1.61 2.08c3.918302.01040485 7.7020695 1.43020507 10.66 4l1.1 1c.3751789.3308628.5057579.8597527.3276786 1.3272109s-.6274561.7754125-1.1276786.7727891h-2.85c2.93 1.45 4.81 5.52 5.61 7.66.0718761.288407.0117313.5938413-.1641226.8334665-.1758539.2396251-.4491901.3886044-.7458774.4065335h-3.69l1.12 1.38c1.9179051 2.3542453 3.1158129 5.2118631 3.45 8.23z" fill="#ff9801"/><g fill="#f57c00"><path id="Shape" d="m59 31.6c.0557785.5131346-.2173992 1.0058443-.6821648 1.2303688-.4647656.2245244-1.020534.1322717-1.3878352-.2303688l-.93-.94s0 0 0-.06l-.11-1c-.3341871-3.0181369-1.5320949-5.8757547-3.45-8.23l-1.13-1.37h3l1.12 1.38c1.9179051 2.3542453 3.1158129 5.2118631 3.45 8.23z"/><path id="Shape" d="m53.26 44.42c-.173621.4467151-.5927129.750393-1.0712832.7762616-.4785702.0258687-.9279546-.2308645-1.1487168-.6562616l-.47-.94c1.9-5.2 1.19-9.67.74-13.6l2.61 2.58c.1918561.1954543.4471702.3160194.72.34.535757 3.8882307.0604747 7.8489171-1.38 11.5z"/><path id="Shape" d="m48.41 45c-.7029388 2.3931572-1.7904729 4.6560389-3.22 6.7-.2335803.3185713-.6049716.5067879-1 .5067879s-.7664197-.1882166-1-.5067879l-.53-.7c1.9330581-3.0211405 3.1601449-6.4392096 3.59-10 1.94 3.82 1.84 3.76 2.16 4z"/><path id="Shape" d="m40.67 52.08c-.81 3.52-1.8 3.56-3.52 1.72.5433419-1.5489579.8795865-3.162932 1-4.8 2.26 3 2.14 2.91 2.52 3.08z"/><path id="Shape" d="m58 21h-3c.3275731.003142.635914-.1543573.8253763-.4215989s.2360188-.6103343.1246237-.9184011c-.8-2.14-2.68-6.21-5.61-7.66h2.85c.502059.0068628.9553098-.2995758 1.1360037-.7680414.1806939-.4684657.0506226-.9998999-.3260037-1.3319586l-1.1-1c-2.9852596-2.5449211-6.7873054-3.9294196-10.71-3.9l1.58-2.08c.2369408-.3068155.3080702-.71043836.1902845-1.07976641s-.4094605-.65724577-.7802845-.77023359c.82-.07 1.74-.07 2.62-.07.4652159-.02405448.9016895.22555274 1.1168759.63871048.2151863.41315775.1695114.913884-.1168759 1.28128952l-1.61 2.08c3.918302.01040485 7.7020695 1.43020507 10.66 4l1.1 1c.3751789.3308628.5057579.8597527.3276786 1.3272109s-.6274561.7754125-1.1276786.7727891h-2.85c2.93 1.45 4.81 5.52 5.61 7.66.0718761.288407.0117313.5938413-.1641226.8334665-.1758539.2396251-.4491901.3886044-.7458774.4065335z"/></g><path id="Shape" d="m49 14.5c.0052509 3.0515435-2.0492058 5.7223373-5 6.5v4.91c-.0001819 1.9363927-.9348854 3.7536649-2.51 4.88l-2.86 2c-.226308-.5432043-.5674422-1.0310263-1-1.43-.29-.32-.19-.21-3.63-2.4 0-1.1-1.79-2-4-2s-4 .9-4 2l-3.29 2.09c-.5881365.4558436-1.049507 1.0549366-1.34 1.74l-2.86-2c-1.5751146-1.1263351-2.5098181-2.9436073-2.51-4.88v-4.91c-6.41-1.54-6.92-11.69 0-12.88 2.1038773-.4214271 4.2875432.07717662 6 1.37 4.807959-3.34783294 11.192041-3.34783294 16 0 1.2705449-1.02435011 2.8691959-1.55368122 4.5-1.49 4.5 0 6.5 2.91 6.5 6.5z" fill="#ffdc00"/><path id="Shape" d="m49 14.5c.0052509 3.0515435-2.0492058 5.7223373-5 6.5v4.91c-.0001819 1.9363927-.9348854 3.7536649-2.51 4.88l-2.86 2c-.226308-.5432043-.5674422-1.0310263-1-1.43l.86-.61c1.5636899-1.1180988 2.4969725-2.9177354 2.51-4.84v-4.91c6.41-1.54 6.92-11.69 0-12.88.4956142-.08309833.9974781-.12324744 1.5-.12 4.5 0 6.5 2.91 6.5 6.5z" fill="#fec108"/><path id="Shape" d="m34 36v4c0 2.209139-1.790861 4-4 4s-4-1.790861-4-4v-4z" fill="#fec108"/><circle id="Oval" cx="23.5" cy="20.5" fill="#37474f" r="3.5"/><circle id="Oval" cx="36.5" cy="20.5" fill="#37474f" r="3.5"/><path id="Shape" d="m37.34 38c-2.3243974 1.6206279-5.4990107 1.2140698-7.34-.94v-6.06c2.11 0 3.83-.82 4-1.85.009706-.049529.009706-.100471 0-.15l3.29 2.09c1.0711603.8221915 1.7032064 2.0924943 1.712977 3.442786.0097705 1.3502917-.6038268 2.6296079-1.662977 3.467214z" fill="#fec108"/><path id="Shape" d="m32.77 38.79c-1.0860024-.2622273-2.0578425-.8691887-2.77-1.73-1.0712621 1.2512389-2.6429669 1.9619866-4.29 1.94-1.9359547.1178449-3.7234661-1.0373654-4.4112624-2.850855-.6877963-1.8134895-.1159311-3.8635329 1.4112624-5.059145l3.29-2.09c-.0105075.0528158-.0105075.1071842 0 .16.15 1 1.66 1.73 3.57 1.83h.43c1.0430561.0236414 2.0751198-.2171735 3-.7l1.25.79c1.319078 1.0108816 1.9542498 2.6799616 1.6409576 4.312045-.3132923 1.6320835-1.5213335 2.9473431-3.1209576 3.397955z" fill="#ffdc00"/><circle id="Oval" cx="22" cy="19" fill="#fff" r="1"/><circle id="Oval" cx="35" cy="19" fill="#fff" r="1"/><ellipse id="Oval" cx="30" cy="29" fill="#ef314c" rx="4" ry="2"/></g><g id="Layer_2" fill="#000" transform="translate(-1)"><path id="Shape" d="m43.5 7c-1.6190242-.05338411-3.2161107.38598905-4.58 1.26-4.8495595-3.0151126-10.9904405-3.0151126-15.84 0-3.7-2.52-12.08-1.78-12.08 6.24-.0133589 3.2244517 1.9812609 6.1166504 5 7.25v4.16c.0016723 2.2582509 1.0926919 4.3769887 2.93 5.69l2.26 1.61c-.4053669 1.5460911-.1022933 3.1923767.8270938 4.4927457.9293871 1.3003691 2.3888512 2.1201705 3.9829062 2.2372543 0 2.7614237 2.2385763 5 5 5s5-2.2385763 5-5c1.594055-.1170838 3.0535191-.9368852 3.9829062-2.2372543.9293871-1.300369 1.2324607-2.9466546.8270938-4.4927457l2.26-1.61c1.8373081-1.3130113 2.9283277-3.4317491 2.93-5.69v-4.16c7.11-2.54 7-14.75-2.5-14.75zm-19.21 24.9 2.38-1.5c.935329.8229923 2.0946323 1.3486823 3.33 1.51v4.77c-1.5297419 1.5235716-3.9259731 1.7459888-5.71.53-.8100075-.643082-1.2821397-1.6207532-1.2821397-2.655s.4721322-2.011918 1.2821397-2.655zm6.71 11.1c-.8205108.000894-1.6055813-.3343214-2.172394-.9275854-.5668126-.5932639-.865897-1.3927973-.827606-2.2124146 1.0997693-.2074649 2.1306961-.6851276 3-1.39.8693039.7048724 1.9002307 1.1825351 3 1.39.038291.8196173-.2607934 1.6191507-.827606 2.2124146-.5668127.593264-1.3518832.9284794-2.172394.9275854zm6.71-5.8c-1.7840269 1.2159888-4.1802581.9935716-5.71-.53v-4.76c1.2353677-.1613177 2.394671-.6870077 3.33-1.51l2.38 1.5c.8100075.643082 1.2821397 1.6207532 1.2821397 2.655s-.4721322 2.011918-1.2821397 2.655zm8.22-17.63c-.2080881-2.2857054-.9477803-4.4910841-2.16-6.44.4062172-.0737177.8173475-.1171705 1.23-.13.5522847 0 1-.4477153 1-1s-.4477153-1-1-1c-1.0826691.0366973-2.1540887.2321135-3.18.58-.3064517.1036233-.543845.3490902-.6371655.6588348-.0933205.3097445-.0310384.6454982.1671655.9011652 1.727904 2.2550312 2.6598096 5.0190984 2.65 7.86v4.91c.0077885 1.6215856-.7713161 3.146245-2.09 4.09l-2 1.4c-.79-1.07-1.27-1.22-4.41-3.22-.2907495-.1848442-.6561756-.2070002-.9671277-.0586375-.310952.1483628-.5236315.4463469-.5628723.7886375-1.730973 1.4670433-4.269027 1.4670433-6 0-.0392408-.3422906-.2519203-.6402747-.5628723-.7886375-.3109521-.1483627-.6763782-.1262067-.9671277.0586375-3.2 2-3.31 2.1-3.37 2.15-.3815095.3083854-.7180922.6685289-1 1.07l-2-1.4c-1.3111196-.9481018-2.0824063-2.4720452-2.07-4.09v-4.91c-.0098096-2.8409016.922096-5.6049688 2.65-7.86.1982039-.255667.260486-.5914207.1671655-.9011652-.0933205-.3097446-.3307138-.5552115-.6371655-.6588348-1.0259113-.3478865-2.0973309-.5433027-3.18-.58-.5522847 0-1 .4477153-1 1s.4477153 1 1 1c.4132485.0114156.8247566.0582539 1.23.14-1.2122197 1.9489159-1.9519119 4.1542946-2.16 6.44-1.8763547-1.0034141-3.0540998-2.9522561-3.07-5.08 0-1.65.54-5.5 5.5-5.5 1.3984131-.07523044 2.7757094.36607382 3.87 1.24.3452432.303106.8525974.3319798 1.23.07 4.4519005-3.0822515 10.3480995-3.0822515 14.8 0 .3774026.2619798.8847568.233106 1.23-.07 1.0942906-.87392618 2.4715869-1.31523044 3.87-1.24 5 0 5.5 3.85 5.5 5.5-.0159002 2.1277439-1.1936453 4.0765859-3.07 5.08z"/><path id="Shape" d="m57.4 22h1.6c.6584468.005441 1.2773826-.313568 1.65499-.853007.3776073-.5394391.4654967-1.2301805.23501-1.846993-.8360441-2.3093705-2.0903015-4.444998-3.7-6.3.9115925-.013863 1.7201836-.5885495 2.0329966-1.4449028.312813-.8563534.0650263-1.8169187-.6229966-2.4150972l-1.1-1c-2.639183-2.27576412-5.906089-3.69828032-9.37-4.08l.44-.58c.4776657-.66765863.5438607-1.54572935.1716902-2.27745448-.3721706-.73172514-1.1207876-1.19536558-1.9416902-1.20254552-3.63 0-7.44.2-10.58 2.61-3.16-3.48-7.22-3.48-10.44 0-3.14-2.41-6.95-2.61-10.58-2.61-.8350996-.00380244-1.6003519.46554904-1.9755183 1.21164277-.3751665.74609374-.2955553 1.64027715.2055183 2.30835723l.44.59c-3.466281.38404123-6.73572723 1.80614578-9.38 4.08l-1.09 1c-.65544979.60994211-.87587397 1.5562621-.55740913 2.393056.31846485.8367938 1.11228308 1.3971161 2.00740913 1.416944h.29c-1.60677776 1.8512089-2.91270321 3.9433892-3.87 6.2-.270354.6194476-.20956144 1.3335357.16161401 1.8983679s1.00251538.9039892 1.67838599.9016321h1.49c-1.92900797 2.4529569-3.13121972 5.397856-3.47 8.5l-.12 1c-.09344359.9315346.40754754 1.8215688 1.25239957 2.2249464.84485204.4033777 1.85195513.2333885 2.51760043-.4249464l.6-.59c-.55007728 4.0787221-.06165571 8.2303054 1.42 12.07.31270229.819053 1.07814743 1.3773602 1.95357256 1.4249141.87542514.047554 1.69684344-.4245532 2.09642744-1.2049141l.45-.89c.7262296 2.9133071 1.9802823 5.6688338 3.7 8.13.4108234.5826696 1.0744775.9349786 1.7872809.9488003.7128033.0138217 1.3896165-.312495 1.8227191-.8788003l.58-.77c.92 5 3.11 6.08 6.35 1.83.72 2.09 2.2 5.13 5 6.53.277569.136003.602431.136003.88 0 2.83-1.4 4.31-4.44 5-6.53 3.23 4.24 5.42 3.18 6.35-1.83l.58.77c.4314654.5826028 1.118214.9203636 1.8430554.9064625.7248415-.013901 1.3981347-.3777448 1.8069446-.9764625 1.7218121-2.4636258 2.975994-5.222826 3.7-8.14l.45.89c.4136331.811392 1.2808757 1.2878448 2.1875441 1.2018106.9066683-.0860342 1.6688179-.7171009 1.9224559-1.5918106 1.4362291-3.7917636 1.9036803-7.881961 1.36-11.9l.6.59c.6656141.6687295 1.6812096.8436696 2.5322061.4361818.8509965-.4074877 1.351451-1.3083671 1.2477939-2.2461818l-.12-1c-.3453179-3.0961866-1.550842-6.0337856-3.48-8.48zm1.48 9.91c-.21.1-.05.16-2.87-2.62-.3018527-.2918744-.7538918-.364094-1.1316596-.1807984-.3777677.1832956-.6007957.5830625-.5583404 1.0007984.48 4.33 1.19 8.23-.93 13.78-.08.23-.1.3-.25.31s-.11.07-2-3.65c-.1979631-.387564-.6238507-.602598-1.0532478-.5317931-.4293971.0708048-.7636998.4111894-.8267522.8417931-.4344965 3.6782967-1.7707284 7.192346-3.89 10.23-.0440605.061384-.1144561.0984344-.19.1-.17 0 0 .14-2.24-2.8-.2520474-.3282248-.6802289-.4672894-1.0770355-.3497992s-.6802496.4672593-.7129645.8797992c-.15 2.25-.77 4.58-1.25 5.08-1.2272077-.9549464-2.2478122-2.1490537-3-3.51-.2166415-.3563299-.6316637-.5408114-1.0413367-.4628844-.409673.0779269-.7279783.4019-.7986633.8128844 0 .05-.9 5.07-4.08 7-3.18-2-4.07-7-4.08-7-.070685-.4109844-.3889903-.7349575-.7986633-.8128844-.409673-.077927-.8246952.1065545-1.0413367.4628844-.7521878 1.3609463-1.7727923 2.5550536-3 3.51-.48-.49-1.06-2.82-1.25-5.07-.0327149-.4125399-.3161579-.762309-.7129645-.8797992s-.8249881.0215744-1.0770355.3497992l-2.02 2.7c-.0404903.0629161-.1101809.1009412-.185.1009412s-.1445097-.0380251-.185-.1009412c-2.118169-3.0382367-3.4542923-6.5520004-3.89-10.23-.0630524-.4306037-.3973551-.7709883-.8267522-.8417931-.4293971-.0708049-.8552847.1442291-1.0532478.5317931l-1.79 3.52c-.03583859.0782062-.11397316.1283485-.2.1283485s-.16416141-.0501423-.2-.1283485c-2.2-5.78-1.47-9.69-1-14 .01969458-.4038262-.20571611-.7797804-.57119194-.9526702s-.79910079-.1086949-1.09880806.1626702l-2.63 2.58c-.06393952.0595966-.15709514.0756885-.23732243.0409956-.0802273-.0346929-.13230691-.1135892-.13267757-.2009956l.11-1c.3179764-2.8276101 1.44270555-5.5040489 3.24-7.71l1.12-1.38c.23715174-.3001041.28234106-.7091964.1164082-1.0538262-.16593287-.3446298-.51391594-.5644168-.8964082-.5661738h-3.59c.8-1.85 2.55-5.24 5.2-7.2.34434433-.2582582.48479734-.7078856.3486833-1.1162278-.13611405-.4083421-.51825289-.6837722-.9486833-.6837722h-2.85c-.08460164.0033398-.16213975-.0469544-.19358448-.1255662s-.00998207-.1685063.05358448-.2244338l1.09-.94c2.78531845-2.39447499 6.3369211-3.71080324 10.01-3.71.3769707-.00375586.7197923-.2191953.8866948-.55722568s.1295175-.74119686-.0966948-1.04277432c-1.75-2.31-1.67-2.14-1.6-2.28.0340282-.07875636.1144958-.12703691.2-.12 3.33 0 6.81.18 9.48 2.29.6.47.86.78 1.41.7.2732216-.04442435.5158066-.20011323.67-.43 0 0 1.8-2.56 4.24-2.56s4.22 2.54 4.24 2.56c.1541934.22988677.3967784.38557565.67.43.52.08.74-.18 1.41-.71 2.68-2.1 6.15-2.28 9.48-2.28.0855042-.00703691.1659718.04124364.2.12.07.15.11 0-1.6 2.28-.2262123.30157746-.2635973.70474394-.0966948 1.04277432s.5097241.55346982.8866948.55722568c3.6696382.00158846 7.2172907 1.31776755 10 3.71l1.09.94c.0635665.0559275.0850292.145822.0535845.2244338-.0314448.0786118-.1089829.128906-.1935845.1255662h-2.84c-.4669086-.0019273-.8730064.3195084-.9783458.7743831s.1181205.9221026.5383458 1.1256169c2.69 1.33 4.48 5.41 5.14 7.1h-3.69c-.3824923.001757-.7304753.221544-.8964082.5661738s-.1207435.7537221.1164082 1.0538262c1.8 2.22 3.85 4.56 4.36 9.09.11 1.06.17 1.11-.01 1.2z"/><path id="Shape" d="m13.59 31.1c-.4971358-.2359653-1.0915024-.0259259-1.33.47-.7251054 1.3723325-1.154344 2.8814809-1.26 4.43 0 .5522847.4477153 1 1 1s1-.4477153 1-1c.1138306-1.2515515.4740763-2.4682303 1.06-3.58.2293083-.4945567.0202656-1.0816552-.47-1.32z"/><path id="Shape" d="m13.53 25c.4641814-.291737.6069171-.902824.32-1.37-.1386255-.2274541-.3622684-.390202-.6213332-.4521522-.2590647-.0619503-.5321396-.0179828-.7586668.1221522-1.3994043.8031944-2.61272102 1.8938162-3.56 3.2-.19468193.4568947-.02454677.9874352.39953915 1.2459018.42408591.2584666.97360095.1665294 1.29046085-.2159018.8002788-1.0282916 1.7960562-1.8881268 2.93-2.53z"/><path id="Shape" d="m46.4 28.2c-.4418278.3313708-.5313708.9581722-.2 1.4 2.72 3.62 2.8 6.4 2.8 6.4 0 .5522847.4477153 1 1 1s1-.4477153 1-1c0-.14 0-3.38-3.2-7.6-.1591299-.2121732-.3960277-.3524422-.6585786-.3899495-.262551-.0375073-.5292482.0308196-.7414214.1899495z"/><path id="Shape" d="m49.53 23.27c-.2265272-.140135-.4996021-.1841025-.7586668-.1221522-.2590648.0619502-.4827077.2246981-.6213332.4521522-.1474693.2269184-.1966707.5039179-.1363682.7677413s.2249592.491941.4563682.6322587c3.14 2 2.72 3 3.78 3 .3620925-.0028888.694335-.2012967.8686008-.5187094.1742658-.3174126.1633259-.7042344-.0286008-1.0112906-.947279-1.3061838-2.1605957-2.3968056-3.56-3.2z"/><path id="Shape" d="m21.44 41.1c-2.1699956-1.2571064-3.487069-3.5926145-3.44-6.1 0-.5522847-.4477153-1-1-1s-1 .4477153-1 1c.07 5.1 3.88 8 5 8 .4669086.0019273.8730064-.3195084.9783458-.7743831s-.1181205-.9221026-.5383458-1.1256169z"/><path id="Shape" d="m45 34c-.5522847 0-1 .4477153-1 1-.0958054 2.7222805-1.8138325 5.1220018-4.36 6.09-.4728524.2246718-.6923924.7760097-.503407 1.2642221s.7225235.7480361 1.223407.5957779c3.3168971-1.2627822 5.5440729-4.4021523 5.64-7.95 0-.5522847-.4477153-1-1-1z"/><path id="Shape" d="m24.5 16c-1.8200801 0-3.4609434 1.0963898-4.1574579 2.7779246-.6965145 1.6815347-.3115136 3.6170649.9754774 4.9040559s3.2225212 1.6719919 4.9040559.9754774c1.6815348-.6965145 2.7779246-2.3373778 2.7779246-4.1574579-.0054995-2.4829999-2.0170001-4.4945005-4.5-4.5zm0 7c-1.3807119 0-2.5-1.1192881-2.5-2.5s1.1192881-2.5 2.5-2.5 2.5 1.1192881 2.5 2.5-1.1192881 2.5-2.5 2.5z"/><path id="Shape" d="m37.5 16c-2.4852814 0-4.5 2.0147186-4.5 4.5s2.0147186 4.5 4.5 4.5 4.5-2.0147186 4.5-4.5c-.0054995-2.4829999-2.0170001-4.4945005-4.5-4.5zm0 7c-1.3807119 0-2.5-1.1192881-2.5-2.5s1.1192881-2.5 2.5-2.5 2.5 1.1192881 2.5 2.5-1.1192881 2.5-2.5 2.5z"/></g></g></svg>