<?xml version="1.0"?>
<svg xmlns="http://www.w3.org/2000/svg" xmlns:xlink="http://www.w3.org/1999/xlink" version="1.1" id="Capa_1" x="0px" y="0px" viewBox="0 0 441.92 441.92" style="enable-background:new 0 0 441.92 441.92;" xml:space="preserve" width="512px" height="512px" class=""><g><path d="M427.704,274.799c-9.492-13.289-21.951-21.529-34.591-26.592c14.807-5.797,29.04-18.546,36.736-44.512  c3.948-13.324,5.302-27.795,4.021-43.01c-0.195-2.331-1.729-4.336-3.928-5.136c-0.68-0.247-16.866-6.053-36.442-6.053  c-15.885,0-29.323,3.762-40.077,11.167c-1.892-12.678-7.037-25.716-15.371-38.908c-9.681-15.338-22.744-29.135-38.826-41.007  c-1.882-1.389-4.401-1.558-6.453-0.432c-0.629,0.346-15.575,8.635-30.593,23.475c-20.282,20.042-30.863,42.516-30.601,64.99  c0.259,22.522,10.834,43.894,30.583,61.804c3.544,3.214,7.076,6.04,10.404,8.486c-16.107-3.167-30.66-8.53-42.435-13.92  c-22.454-10.278-39.055-22.422-45.067-27.094l14.11-121.91c2.398-20.722-0.64-41.825-8.787-61.027  c-1.294-3.05-4.818-4.472-7.867-3.18c-3.051,1.294-4.475,4.816-3.18,7.867c7.337,17.293,10.073,36.298,7.913,54.961l-11.129,96.159  l-14.621,7.008c-0.161-0.533-0.313-1.067-0.49-1.599c-7.568-22.609-28.663-37.8-52.49-37.8c-5.963,0-11.878,0.968-17.58,2.877  C71.268,148,52.033,166.209,44.167,185.696c-3.09,7.653-9.164,13.482-16.664,15.994c-6.176,2.066-9.518,8.772-7.451,14.948  l4.145,12.384c1.614,4.822,6.115,8.063,11.199,8.063c1.274,0,2.536-0.206,3.75-0.612c7.452-2.494,15.93-1.471,22.935,2.739  c11.261,6.766,26.268,10.646,41.171,10.646c0.001,0,0.002,0,0.004,0c8.192,0,16.088-1.193,22.833-3.451  c24.367-8.157,39.32-31.722,37.662-56.241l10.742-5.148l-1.734,14.986c-0.001,0.007-0.002,0.013-0.002,0.019l-2.887,24.947  l-50.638,44.848c-10.921-9.229-24.595-14.259-39.083-14.259c-16.016,0-31.126,6.185-42.548,17.415  c-16.266,15.994-26.494,43.264-24.873,66.315c0.655,9.312-2.631,18.253-9.015,24.53c-4.891,4.809-4.958,12.699-0.149,17.59  l10.145,10.317c2.357,2.396,5.507,3.717,8.87,3.717c3.282,0,6.378-1.267,8.72-3.568c5.723-5.627,13.461-8.727,21.789-8.727  c0.958,0,1.931,0.043,2.891,0.127c1.978,0.173,4.026,0.26,6.086,0.26c0.001,0-0.001,0,0,0c21.664,0,46.035-9.649,60.638-24.01  c3.766-3.702,6.942-7.781,9.534-12.115c1.019,4.119,2.457,8.167,4.329,12.084c10.16,21.258,33.361,40.403,56.422,46.559  c9.397,2.509,17.095,8.776,21.12,17.197c2.092,4.377,6.58,7.205,11.432,7.205c0.001,0,0.001,0,0.001,0  c1.899,0,3.736-0.417,5.457-1.24l13.515-6.46c3.054-1.459,5.355-4.02,6.481-7.209c1.127-3.19,0.943-6.628-0.516-9.68  c-4.024-8.42-4.066-18.348-0.115-27.236c9.692-21.811,9.366-51.89-0.794-73.146c-10.346-21.645-32.539-35.631-56.541-35.631  c-1.251,0-2.496,0.043-3.736,0.116l-7.663-42.227l1.838-15.882c8.544,6.158,22.983,15.617,41.361,24.061  c26.036,11.964,51.804,18.013,76.115,18.013c7.687,0,15.225-0.616,22.583-1.83c-6.146,13.44-16.886,43.397-7.113,72.582  c7.282,21.747,24.382,38.427,50.824,49.574c16.731,7.052,35.339,10.901,55.307,11.439c0.055,0.001,0.108,0.002,0.163,0.002  c2.275,0,4.362-1.29,5.376-3.338c0.318-0.644,7.841-15.987,11.675-36.748C444.937,317.578,440.768,293.09,427.704,274.799z   M47.543,223.11c-4.123,0-8.187,0.653-12.023,1.934l-4.029-12.035c4.837-1.646,9.247-4.24,13.041-7.577  c3.176,4.799,6.584,11.578,6.673,17.872C49.988,223.189,48.767,223.11,47.543,223.11z M122.28,235.028  c-5.532,1.852-12.11,2.83-19.023,2.83c-0.001,0-0.002,0-0.003,0c-12.789,0-25.543-3.256-34.992-8.933  c-2.877-1.729-5.931-3.067-9.08-4.035c0.545-10.05-5.213-19.981-9.092-25.466c2.097-2.798,3.856-5.895,5.205-9.237  c6.542-16.205,23.137-31.932,39.458-37.396c4.472-1.497,9.105-2.256,13.771-2.256c18.661,0,35.183,11.899,41.111,29.608  C157.223,202.818,144.952,227.437,122.28,235.028z M22.885,383.318c-0.031,0.031-0.128,0.126-0.308,0.126  c-0.185,0-0.281-0.098-0.313-0.131L12.12,372.996c-0.169-0.172-0.167-0.45,0.005-0.619c4.151-4.082,7.349-8.96,9.502-14.299  c5.824,3.343,13.235,8.872,16.408,15.7C32.386,375.832,27.227,379.048,22.885,383.318z M114.288,350.969  c-12.314,12.109-33.79,20.566-52.225,20.566c-1.714,0-3.41-0.072-5.042-0.215c-1.305-0.113-2.629-0.172-3.935-0.172  c-2.447,0-4.856,0.208-7.215,0.592c-4.251-10.682-15.373-17.98-21.902-21.49c0.756-3.825,1.011-7.792,0.729-11.802  c-1.371-19.488,7.593-43.425,21.315-56.917c9.164-9.01,21.287-13.972,34.135-13.972c13.163,0,25.495,5.169,34.722,14.554  C133.694,301.257,133.433,332.146,114.288,350.969z M239.678,411.549c-0.062,0.173-0.176,0.301-0.342,0.38l-13.516,6.46  c-0.094,0.045-0.186,0.066-0.281,0.066c-0.071,0-0.433-0.019-0.606-0.381c-2.607-5.455-6.327-10.237-10.856-14.14  c4.868-4.314,13.035-10.325,21.362-11.036c0.086,6.254,1.486,12.441,4.212,18.144C239.73,411.207,239.739,411.378,239.678,411.549z   M238.742,310.66c8.616,18.026,8.891,44.563,0.654,63.098c-1.6,3.601-2.705,7.334-3.337,11.106  c-12.017,0.485-23.039,9.088-28.649,14.303c-3.494-2.038-7.298-3.631-11.329-4.707c-19.597-5.231-40.073-22.111-48.689-40.14  c-5.832-12.199-6.563-25.94-2.059-38.69s13.703-22.983,25.903-28.814c6.889-3.293,14.221-4.962,21.792-4.962  C212.434,281.853,230.378,293.16,238.742,310.66z M166.061,275.989c-11.55,5.52-20.914,14.238-27.176,25.092  c-2.073-8.083-5.819-15.825-11.272-22.657l43.953-38.927l5.872,32.357C173.556,272.86,169.754,274.224,166.061,275.989z   M328.161,228.526c0.53,4.271,1.224,7.742,1.757,10.054c-5.803,1.396-11.583,2.324-17.299,2.842  C317.43,238.036,322.85,233.742,328.161,228.526z M369.005,240.504c-9.054,0-17.348-1.852-22.93-3.497l5.739-4.947l17.507,4.816  c0.354,0.098,0.712,0.145,1.063,0.145c1.756,0,3.366-1.165,3.854-2.94c0.586-2.13-0.665-4.331-2.796-4.917l-12.333-3.393  l6.979-6.017l30.529,7.077c0.304,0.07,0.607,0.104,0.907,0.104c1.818,0,3.465-1.25,3.893-3.098c0.499-2.152-0.841-4.301-2.993-4.8  l-24.829-5.755l12.584-10.849l23.14,4.407c0.253,0.048,0.504,0.071,0.753,0.071c1.882,0,3.56-1.335,3.925-3.253  c0.413-2.17-1.011-4.264-3.182-4.678l-16.898-3.219l28.405-24.489c0.034,10.202-1.287,19.931-3.979,29.013  C410.433,226.973,393.834,240.505,369.005,240.504z M393.5,161.498c9.582,0,18.372,1.604,24.367,3.052l-21.148,18.232l-1.587-11.708  c-0.297-2.189-2.319-3.722-4.501-3.427c-2.189,0.297-3.724,2.313-3.427,4.501l2.287,16.866l-13.531,11.666l-2.458-21.967  c-0.246-2.195-2.218-3.775-4.421-3.53c-2.195,0.246-3.775,2.225-3.53,4.421l3.067,27.407l-14.537,12.533l-1.011-10.86  c-0.204-2.199-2.152-3.824-4.354-3.611c-2.199,0.204-3.816,2.153-3.611,4.354l1.539,16.53l-5.971,5.148  c-0.734-4.336-1.423-10.286-1.283-16.914c0.36-17.219,5.87-30.726,16.376-40.147C365.045,165.717,377.74,161.498,393.5,161.498z   M327.906,128.163c9.344,14.792,14.151,29.135,14.327,42.672c-8.903,10.578-13.948,24.402-14.739,40.549  c-9.595,12.111-21.694,20.508-29.047,24.93l0.111-13.833l20.65-13.613c1.845-1.216,2.354-3.697,1.139-5.541  c-1.217-1.845-3.697-2.354-5.541-1.139l-16.17,10.659l0.123-15.288l34.223-24.613c1.793-1.289,2.201-3.789,0.911-5.582  c-1.29-1.795-3.792-2.202-5.582-0.912l-29.473,21.195l0.203-25.18l25.074-19.583c1.741-1.359,2.051-3.873,0.69-5.614  c-1.36-1.74-3.874-2.051-5.614-0.69l-20.068,15.673l0.451-55.982C311.053,105.836,320.563,116.529,327.906,128.163z M243.58,168.644  c-0.427-36.48,33.11-63.31,48.002-73.412l-0.343,42.63l-15.037-9.955c-1.843-1.221-4.324-0.715-5.543,1.127  c-1.22,1.842-0.715,4.324,1.127,5.543l19.376,12.828l-0.216,26.815l-26.037-18.124c-1.814-1.263-4.307-0.814-5.568,0.998  c-1.262,1.813-0.815,4.306,0.998,5.568l30.53,21.25l-0.23,28.612l-13.733-9.944c-1.788-1.293-4.289-0.896-5.586,0.895  c-1.295,1.789-0.896,4.29,0.895,5.586l18.345,13.284l-0.114,14.132C276.362,228.21,243.999,205.244,243.58,168.644z   M327.814,320.942c-8.293-24.669,1.004-51.161,6.418-63.301l7.812,11.403l-9.158,22.977c-0.817,2.052,0.183,4.378,2.235,5.196  c0.485,0.193,0.986,0.285,1.479,0.285c1.589,0,3.093-0.954,3.717-2.521l7.171-17.991l8.642,12.613l-14.002,39.761  c-0.734,2.083,0.36,4.367,2.444,5.101c0.439,0.155,0.888,0.229,1.328,0.229c1.649,0,3.194-1.028,3.772-2.673l12.058-34.242  l14.232,20.774l-9.372,30.403c-0.651,2.111,0.533,4.351,2.644,5.001c0.393,0.121,0.79,0.179,1.18,0.179  c1.709,0,3.292-1.104,3.821-2.822l7.501-24.333l31.642,46.185c-14.875-1.28-28.793-4.615-41.48-9.963  C348.8,353.465,333.967,339.246,327.814,320.942z M420.531,369.45l-24.096-35.171l18.03-0.432c2.209-0.053,3.956-1.887,3.903-4.095  c-0.054-2.208-1.901-3.984-4.095-3.903l-23.233,0.556l-15.156-22.122l31.724-0.021c2.209-0.001,3.998-1.793,3.997-4.003  c-0.001-2.208-1.792-3.997-4-3.997c-0.001,0-0.002,0-0.003,0l-37.197,0.024l-16.172-23.605l16.953,0.305  c2.184,0.036,4.032-1.719,4.071-3.927c0.04-2.209-1.719-4.032-3.927-4.071l-22.647-0.407l-7.988-11.66  c2.694-0.214,6.013-0.386,9.783-0.386c38.494,0,57.932,15.9,67.459,29.238C439.145,311.463,426.972,352.646,420.531,369.45z" data-original="#000000" class="active-path" data-old_color="#000000" fill="#CF4B4B"/></g> </svg>
