<?xml version="1.0" encoding="iso-8859-1"?>
<!-- Generator: Adobe Illustrator 19.0.0, SVG Export Plug-In . SVG Version: 6.00 Build 0)  -->
<svg version="1.1" id="Capa_1" xmlns="http://www.w3.org/2000/svg" xmlns:xlink="http://www.w3.org/1999/xlink" x="0px" y="0px"
	 viewBox="0 0 512 512" style="enable-background:new 0 0 512 512;" xml:space="preserve">
<polygon style="fill:#CF301B;" points="399.5,268.999 444.5,253.999 444.5,193.999 399.5,178.999 "/>
<polygon style="fill:#FF4128;" points="414.5,268.999 354.5,253.999 354.5,193.999 414.5,178.999 "/>
<path style="fill:#E18F4E;" d="M413.592,44.546L399.5,104.999c24.853,0,45-20.147,45-45L413.592,44.546z"/>
<path style="fill:#FFA754;" d="M414.5,59.999c0-5.429-0.321-10.634-0.908-15.453L372.497,24
	C361.57,32.211,354.5,45.279,354.5,59.999c0,24.853,20.147,45,45,45C407.784,104.999,414.5,84.852,414.5,59.999z"/>
<path style="fill:#40211D;" d="M399.5,14.999l14.899,39.832c9.413,3.341,19.543,5.168,30.101,5.168
	C444.5,35.146,424.353,14.999,399.5,14.999z"/>
<path style="fill:#60312C;" d="M399.5,14.999c-10.132,0-19.481,3.35-27.003,9.002c10.532,14.02,25.066,24.856,41.901,30.831
	C413.544,32.414,407.201,14.999,399.5,14.999z"/>
<path style="fill:#FFF0D3;" d="M414.5,254.999l-15,45c24.853,0,45-20.147,45-45H414.5z"/>
<path style="fill:#FFFFFF;" d="M414.5,254.999h-60c0,24.853,20.147,45,45,45C407.784,299.999,414.5,279.852,414.5,254.999z"/>
<path style="fill:#FFF0D3;" d="M424.5,134.999h-30l20,60h30v-40C444.5,143.953,435.546,134.999,424.5,134.999z"/>
<path style="fill:#FFFFFF;" d="M394.5,134.999h-20c-11.046,0-20,8.954-20,20v40h60v-40C414.5,143.953,405.546,134.999,394.5,134.999
	z"/>
<polygon style="fill:#2DADE3;" points="82.5,299.999 127.5,284.999 127.5,224.999 82.5,209.999 "/>
<polygon style="fill:#49C9FF;" points="97.5,299.999 37.5,284.999 37.5,224.999 97.5,209.999 "/>
<path style="fill:#FFF0D3;" d="M97.5,284.999l-15,45c24.853,0,45-20.147,45-45H97.5z"/>
<path style="fill:#FFFFFF;" d="M97.5,284.999h-60c0,24.853,20.147,45,45,45C90.784,329.999,97.5,309.852,97.5,284.999z"/>
<path style="fill:#FFF0D3;" d="M107.5,164.999h-30l20,60h30v-40C127.5,173.953,118.546,164.999,107.5,164.999z"/>
<path style="fill:#FFFFFF;" d="M77.5,164.999h-20c-11.046,0-20,8.954-20,20v40h60v-40C97.5,173.953,88.546,164.999,77.5,164.999z"/>
<path style="fill:#FFB4A9;" d="M82.5,44.999v101l45-46v-10C127.5,65.146,107.353,44.999,82.5,44.999z"/>
<path style="fill:#FFD9D4;" d="M82.5,44.999c-24.853,0-45,20.147-45,45v10l60,46v-56C97.5,65.146,90.784,44.999,82.5,44.999z"/>
<path style="fill:#FF6337;" d="M101.209,99.999c-1.053-1.573-2.303-3.002-3.709-4.261l-15,69.261c24.853,0,45-20.147,45-45v-20
	C127.5,99.999,101.209,99.999,101.209,99.999z"/>
<path style="fill:#FF8646;" d="M97.5,119.999V95.738c-3.981-3.566-9.235-5.739-15-5.739c-7.801,0-14.672,3.971-18.709,10H37.5v20
	c0,24.853,20.147,45,45,45C90.784,164.999,97.5,144.852,97.5,119.999z"/>
<path d="M399.5,112.499c28.949,0,52.5-23.551,52.5-52.5s-23.551-52.5-52.5-52.5S347,31.05,347,59.999S370.551,112.499,399.5,112.499
	z M436.151,52.079c-20.154-2-38.58-11.212-52.297-26.147c4.766-2.198,10.063-3.433,15.646-3.433
	C417.46,22.499,432.505,35.193,436.151,52.079z M371.699,34.86c16.692,18.803,39.576,30.244,64.607,32.299
	c-3.352,17.264-18.577,30.34-36.806,30.34c-20.678,0-37.5-16.822-37.5-37.5C362,50.336,365.675,41.516,371.699,34.86z"/>
<path d="M493.815,293.449l-50.336-9.83c5.38-8.239,8.521-18.067,8.521-28.62v-100c0-15.164-12.336-27.5-27.5-27.5h-50
	c-15.164,0-27.5,12.336-27.5,27.5v0.21c-8.729-3.096-15-11.433-15-21.212l-0.017-60c-0.001-4.142-3.358-7.498-7.5-7.498
	c-4.144,0.001-7.501,3.36-7.5,7.502L317,133.999c0,18.11,12.904,33.261,30,36.745v15.755h-67.5c-12.407,0-22.5-10.093-22.5-22.5
	c0-4.142-3.358-7.5-7.5-7.5s-7.5,3.358-7.5,7.5c0,20.678,16.822,37.5,37.5,37.5H347v46H191.438l-8.291-24.872
	c-1.31-3.93-5.559-6.054-9.487-4.744c-3.93,1.31-6.053,5.558-4.744,9.487l10,30c1.021,3.063,3.887,5.128,7.115,5.128h161.512
	c3.651,25.407,25.554,45,51.956,45c12.044,0,23.146-4.087,32.014-10.933l59.435,11.607c3.506,0.68,6.051,3.775,6.051,7.358
	c0,4.136-3.364,7.5-7.5,7.5h-120c-3.228,0-6.094,2.066-7.115,5.128l-10,30c-1.31,3.929,0.814,8.177,4.744,9.487
	c0.787,0.262,1.586,0.387,2.373,0.387c3.14,0,6.066-1.988,7.114-5.13l8.291-24.872H489.5c12.407,0,22.5-10.093,22.5-22.5
	C512,304.78,504.348,295.493,493.815,293.449z M362,171.499h52.5c4.142,0,7.5-3.358,7.5-7.5s-3.358-7.5-7.5-7.5H362v-1.5
	c0-6.893,5.607-12.5,12.5-12.5h50c6.893,0,12.5,5.607,12.5,12.5v31.5h-75V171.499z M362,201.499h75v46h-75V201.499z
	 M362.755,262.499h73.491c-3.484,17.096-18.635,30-36.745,30S366.239,279.595,362.755,262.499z"/>
<path d="M135,284.999v-82.5h31c20.678,0,37.5-16.822,37.5-37.5v-45c0-4.142-3.358-7.5-7.5-7.5s-7.5,3.358-7.5,7.5v45
	c0,12.407-10.093,22.5-22.5,22.5h-8.52c4.719-6.271,7.52-14.063,7.52-22.498l0.017-60c0.001-4.142-3.356-7.501-7.498-7.502
	c-4.143,0-7.501,3.356-7.502,7.498L150,164.999c0,9.778-6.271,18.114-15,21.21v-1.21c0-11.727-7.381-21.757-17.739-25.704
	C128.13,149.669,135,135.625,135,119.999v-30c0-28.949-23.551-52.5-52.5-52.5S30,61.05,30,89.999v30
	c0,15.626,6.87,29.67,17.739,39.296C37.381,163.242,30,173.272,30,184.999v100c0,14.269,5.73,27.22,15,36.692v75.055L1.274,461.851
	C0.443,463.087,0,464.543,0,466.032v30c0,4.142,3.358,7.5,7.5,7.5s7.5-3.358,7.5-7.5v-27.715l43.726-65.104
	c0.831-1.236,1.274-2.692,1.274-4.182v-66.608c6.824,3.251,14.452,5.076,22.5,5.076s15.676-1.825,22.5-5.076v154.576
	c0,3.228,2.066,6.094,5.128,7.115l30,10c0.787,0.262,1.586,0.387,2.373,0.387c3.14,0,6.066-1.988,7.114-5.13
	c1.31-3.93-0.814-8.177-4.744-9.487L120,481.593V321.691C129.27,312.219,135,299.268,135,284.999z M45,232.499h75v45H45V232.499z
	 M82.5,52.499c20.678,0,37.5,16.822,37.5,37.5v2.5h-15.139c-5.652-6.325-13.746-10-22.361-10s-16.708,3.675-22.361,10H45v-2.5
	C45,69.321,61.822,52.499,82.5,52.499z M45,119.999v-12.5h18.792c2.502,0,4.84-1.248,6.232-3.328
	c2.797-4.178,7.461-6.672,12.476-6.672s9.679,2.494,12.476,6.672c1.392,2.08,3.73,3.328,6.232,3.328H120v12.5
	c0,20.678-16.822,37.5-37.5,37.5S45,140.677,45,119.999z M57.5,172.499h50c6.893,0,12.5,5.607,12.5,12.5v2.5H67.5
	c-4.142,0-7.5,3.358-7.5,7.5s3.358,7.5,7.5,7.5H120v15H45v-32.5C45,178.106,50.607,172.499,57.5,172.499z M45.755,292.499h73.491
	c-3.484,17.096-18.635,30-36.745,30S49.239,309.595,45.755,292.499z"/>
<g>
</g>
<g>
</g>
<g>
</g>
<g>
</g>
<g>
</g>
<g>
</g>
<g>
</g>
<g>
</g>
<g>
</g>
<g>
</g>
<g>
</g>
<g>
</g>
<g>
</g>
<g>
</g>
<g>
</g>
</svg>
