<svg height="512pt" viewBox="-21 0 512 512" width="512pt" xmlns="http://www.w3.org/2000/svg"><path d="m172.277344 382.703125s-10.648438 3.769531-24.289063 12.894531c-36.371093 24.328125-58.269531 65.109375-58.269531 108.902344h82.558594l26.4375-60.898438zm0 0" fill="#546e7a"/><path d="m167.988281 395.597656c2.734375-1.828125 5.347657-3.441406 7.777344-4.851562l-3.492187-8.042969s-10.644532 3.769531-24.285157 12.894531c-36.371093 24.328125-58.273437 65.109375-58.273437 108.902344h20c.003906-43.792969 21.902344-84.574219 58.273437-108.902344zm0 0" fill="#455a64"/><path d="m321.886719 395.597656c-13.640625-9.125-24.285157-12.894531-24.285157-12.894531l-26.441406 60.898437 26.441406 60.898438h82.558594c0-43.792969-21.902344-84.574219-58.273437-108.902344zm0 0" fill="#546e7a"/><path d="m16.25 214.4375c0-114.105469 98.101562-206.9375 218.6875-206.9375s218.6875 92.832031 218.6875 206.9375zm0 0" fill="#d9712d"/><path d="m462.375 231.671875c0 21.964844-17.804688 39.773437-39.773438 39.773437-21.964843 0-39.773437-17.808593-39.773437-39.773437s17.808594-39.773437 39.773437-39.773437c21.96875 0 39.773438 17.808593 39.773438 39.773437zm0 0" fill="#f2cda0"/><path d="m87.046875 231.671875c0 21.964844-17.808594 39.773437-39.773437 39.773437-21.964844 0-39.773438-17.808593-39.773438-39.773437s17.808594-39.773437 39.773438-39.773437c21.964843 0 39.773437 17.808593 39.773437 39.773437zm0 0" fill="#f2cda0"/><path d="m424.78125 220.734375c.074219-2.085937.117188-4.1875.117188-6.296875 0-53.726562-25.347657-101.902344-65.433594-134.574219-30.796875-25.097656-73.625-29.601562-108.714844-10.964843-9.804688 5.21875-15.8125 9.839843-15.8125 9.839843s-6.003906-4.628906-15.824219-9.839843c-34.382812-18.265626-76.542969-14.644532-107 9.609374-.105469.074219-.199219.144532-.292969.230469-20.453124 16.335938-37.160156 36.6875-48.761718 59.722657-11.589844 23.046874-18.078125 48.800781-18.078125 75.976562 0 2.109375.039062 4.207031.113281 6.296875l29.898438 66.597656 159.945312 53.898438 163.445312-64.398438zm0 0" fill="#fdddb6"/><path d="m172.277344 382.703125h125.324218v121.796875h-125.324218zm0 0" fill="#efedee"/><path d="m172.277344 443.601562 62.660156-50.953124-5.996094-9.945313h-56.664062zm0 0" fill="#e0e0e0"/><path d="m297.601562 443.601562-62.664062-50.953124 6-9.945313h56.664062zm0 0" fill="#e0e0e0"/><path d="m424.78125 220.734375c-3.539062 95.496094-87.175781 171.914063-189.84375 171.914063-102.664062 0-186.304688-76.417969-189.84375-171.914063 78.160156 90.121094 86.246094 22.15625 189.84375 6.898437 103.601562 15.257813 111.683594 83.222657 189.84375-6.898437zm0 0" fill="#ff8333"/><path d="m75.09375 220.734375c-.074219-2.089844-.117188-4.1875-.117188-6.300781 0-27.171875 6.492188-52.925782 18.082032-75.972656 11.601562-23.039063 28.304687-43.386719 48.757812-59.722657.09375-.085937.191406-.160156.296875-.230469 13.507813-10.757812 29.320313-17.449218 45.734375-19.980468-2.613281-.398438-5.246094-.691406-7.882812-.882813-17.53125-1.273437-35.40625 2.210938-51.105469 10.132813-5.851563 2.953125-11.566406 6.605468-16.746094 10.730468-.039062.023438-.070312.054688-.105469.082032-.066406.046875-.128906.09375-.191406.148437-20.214844 16.148438-37.109375 36.59375-48.757812 59.722657-12.292969 24.40625-18.558594 51.777343-18.050782 79.101562 0 .042969 0 .082031.003907.125.019531 1.019531.046875 2.035156.082031 3.046875l29.898438 66.597656 19.972656 6.730469c-11.84375-22.203125-18.898438-47.039062-19.871094-73.328125zm0 0" fill="#f2cda0"/><path d="m123.820312 176.269531c-7.25 0-13.125 5.878907-13.125 13.128907s5.875 13.125 13.125 13.125h18.816407c7.25 0 13.128906-5.875 13.128906-13.125s-5.878906-13.128907-13.128906-13.128907zm0 0" fill="#f37f33"/><path d="m346.054688 176.269531c7.25 0 13.128906 5.878907 13.128906 13.128907s-5.878906 13.125-13.128906 13.125h-18.816407c-7.25 0-13.125-5.875-13.125-13.125s5.875-13.128907 13.125-13.128907zm0 0" fill="#f37f33"/><path d="m79.679688 254.015625c-10.046876-7.21875-21.304688-17.964844-34.585938-33.28125.433594 11.722656 2.097656 23.429687 4.960938 34.804687 19.785156 78.601563 95.050781 137.109376 184.882812 137.109376.039062 0 .074219-.003907.113281-.003907 3.535157 0 7.070313-.101562 10.601563-.285156 1.332031-.070313 2.972656-.453125 4.285156-.265625-83.683594-6.136719-152.136719-63.144531-170.257812-138.078125zm0 0" fill="#d9712d"/><path d="m234.9375 268.890625c8.492188 0 16.464844-3.550781 21.875-9.742187 2.726562-3.121094 2.410156-7.859376-.710938-10.585938-3.117187-2.726562-7.855468-2.40625-10.582031.710938-2.566406 2.9375-6.421875 4.617187-10.582031 4.617187s-8.019531-1.683594-10.582031-4.617187c-2.726563-3.117188-7.464844-3.433594-10.585938-.707032-3.117187 2.722656-3.433593 7.460938-.710937 10.582032 5.417968 6.191406 13.390625 9.742187 21.878906 9.742187zm0 0"/><path d="m123.820312 210.023438h1.910157v12.851562c0 4.144531 3.355469 7.5 7.5 7.5 4.140625 0 7.5-3.355469 7.5-7.5v-12.851562h1.90625c11.375 0 20.628906-9.25 20.628906-20.625s-9.253906-20.628907-20.628906-20.628907h-18.816407c-11.371093 0-20.625 9.253907-20.625 20.628907s9.25 20.625 20.625 20.625zm0-26.253907h18.816407c3.101562 0 5.625 2.527344 5.625 5.628907 0 3.101562-2.523438 5.625-5.625 5.625h-18.816407c-3.101562 0-5.625-2.523438-5.625-5.625 0-3.101563 2.523438-5.628907 5.625-5.628907zm0 0"/><path d="m327.238281 210.023438h1.910157v12.851562c0 4.144531 3.359374 7.5 7.5 7.5 4.140624 0 7.5-3.355469 7.5-7.5v-12.851562h1.90625c11.375 0 20.628906-9.25 20.628906-20.625s-9.253906-20.628907-20.628906-20.628907h-18.816407c-11.371093 0-20.625 9.253907-20.625 20.628907s9.253907 20.625 20.625 20.625zm0-26.253907h18.816407c3.105468 0 5.628906 2.527344 5.628906 5.628907 0 3.101562-2.523438 5.625-5.628906 5.625h-18.816407c-3.101562 0-5.625-2.523438-5.625-5.625 0-3.101563 2.523438-5.628907 5.625-5.628907zm0 0"/><path d="m380.160156 512c4.140625 0 7.5-3.359375 7.5-7.5 0-46.292969-23.03125-89.335938-61.605468-115.136719-3.328126-2.226562-6.492188-4.152343-9.394532-5.800781 20.253906-8.664062 38.992188-20.59375 55.414063-35.507812 21.671875-19.675782 37.972656-43.292969 48.132812-69.175782.800781.042969 1.601563.066406 2.394531.066406 26.066407 0 47.273438-21.207031 47.273438-47.273437 0-10.273437-3.363281-19.839844-9.039062-27.644531-2.289063-45.226563-19.277344-87.828125-49.238282-123.332032-2.671875-3.167968-7.402344-3.566406-10.570312-.894531-3.164063 2.667969-3.566406 7.402344-.894532 10.566407 24.480469 29.011718 39.644532 63.09375 44.378907 99.417968-4.320313-2.257812-8.984375-3.835937-13.832031-4.671875-.0625-.011719-.121094-.023437-.183594-.035156-.195313-.03125-.390625-.070313-.589844-.101563-6.429688-37.929687-25.222656-72.898437-53.753906-100.335937-7.152344-6.878906-14.757813-13.414063-23.234375-18.625-29.042969-18.039063-64.847657-21.109375-96.382813-8.097656-6.6875 2.761719-13.070312 6.226562-19.179687 10.097656-.882813.558594-1.6875 1.082031-2.414063 1.5625-1.09375-.722656-2.367187-1.542969-3.804687-2.429687-6.492188-4.007813-13.316407-7.601563-20.464844-10.296876-30.464844-11.652343-64.535156-8.636718-92.273437 8.167969-30.40625 18.425781-54.539063 50.230469-67.839844 82.835938-4.925782 12.03125-8.472656 24.429687-10.613282 37.125-.191406.027343-.378906.066406-.566406.097656-.058594.011719-.113281.019531-.171875.03125-4.851562.835937-9.515625 2.414063-13.835937 4.671875 5.890625-45.019531 27.820312-86.636719 62.839844-118.636719 39.625-36.207031 91.734374-56.144531 146.726562-56.144531 54.511719 0 106.292969 19.644531 145.804688 55.320312 3.074218 2.777344 7.816406 2.53125 10.59375-.542968 2.773437-3.074219 2.53125-7.816406-.542969-10.589844-42.273438-38.167969-97.625-59.1875-155.855469-59.1875-58.746094 0-114.449219 21.335938-156.847656 60.070312-41.816406 38.210938-66.269532 89.257813-69.042969 143.949219-5.679687 7.804688-9.046875 17.375-9.046875 27.652344 0 26.066406 21.207031 47.273437 47.273438 47.273437.785156 0 1.574218-.023437 2.367187-.0625 7.542969 19.191407 18.507813 37.183594 32.691406 53.40625 2.726563 3.121094 7.464844 3.4375 10.582031.714844 3.117188-2.726562 3.4375-7.464844.710938-10.585937-14.085938-16.113281-24.71875-34.105469-31.644531-53.328125-3.09375-8.585938-5.453125-17.625-7.050781-26.65625.035156.035156.0625.0625.097656.09375 4.332031 4.269531 8.75 8.460937 13.4375 12.339844 10.984375 9.078124 25.898437 19.035156 40.78125 19.035156 17.929687 0 34.28125-6.730469 50.28125-14.136719 17.015625-7.871094 37.96875-17.554687 66.613281-23.035156 4.128906-.789063 8.179687-1.636719 12.390625-.9375.011719 0 .027344.003906.039062.003906 31.320313 5.257813 53.753907 15.632813 71.777344 23.96875 16.71875 7.734375 34.425782 16.507813 53.40625 13.796875 12.101563-1.640625 24.144532-7.535156 37.621094-18.667969 3.828125-3.160156 12.738281-11.625 13.570312-12.460937-1.546874 8.753906-3.816406 17.378906-6.808593 25.804687-.066407.183594-.113281.371094-.164063.558594-9.152344 25.558594-24.769531 48.890625-45.980468 68.152344-28.53125 25.90625-64.757813 41.984375-102.945313 46.710937-13.589844 1.679688-27.066406 1.789063-40.6875.78125-.03125-.003906-.058594-.003906-.085937-.007812-38.484376-3.292969-74.953126-17.929688-104.113282-42.046875-3.191406-2.640625-7.917968-2.191407-10.558594 1-2.640624 3.191406-2.191406 7.921875 1 10.558593 14.707032 12.164063 31.121094 22.089844 48.667969 29.585938-2.917969 1.65625-6.097656 3.589844-9.449219 5.832031-38.574218 25.800781-61.605468 68.84375-61.605468 115.136719 0 4.140625 3.359375 7.5 7.5 7.5zm-215.382812-15h-23.007813v-32.882812c0-4.140626-3.359375-7.5-7.5-7.5-4.144531 0-7.5 3.359374-7.5 7.5v32.882812h-29.324219c2.324219-38.390625 22.40625-73.558594 54.714844-95.167969 4.699219-3.144531 9.027344-5.617187 12.617188-7.480469zm15-104.207031c1.300781.355469 2.609375.695312 3.921875 1.027343 6.117187 1.542969 12.316406 2.808594 18.550781 3.785157 4.226562.652343 8.472656 1.210937 12.730469 1.605469l-35.203125 28.628906zm47.660156 104.207031h-47.660156v-49.828125l47.660156-38.761719zm62.664062 0h-47.664062v-88.589844l47.664062 38.761719zm0-69.164062-35.207031-28.628907c.140625-.011719 10.289063-1.167969 15.183594-2 6.769531-1.140625 13.453125-2.609375 20.023437-4.398437zm27.613282-26.003907c32.3125 21.609375 52.394531 56.777344 54.71875 95.167969h-29.328125v-32.882812c0-4.140626-3.355469-7.5-7.5-7.5-4.140625 0-7.5 3.359374-7.5 7.5v32.882812h-23.003907v-102.660156c3.570313 1.859375 7.890626 4.332031 12.613282 7.492187zm113.15625-164.257812c1.621094-12.175781 1.949218-24.546875.988281-36.796875 13.269531 4.019531 23.019531 16.433594 23.019531 30.894531 0 16.871094-13.015625 30.761719-29.53125 32.15625 2.5-8.566406 4.347656-17.335937 5.523438-26.253906zm-378.304688-28.390625c.179688-5.441406.640625-10.871094 1.367188-16.265625 4.675781-34.777344 21.015625-67.222657 45.246094-92.492188 19.75-20.605469 44.132812-35.554687 73.667968-35.554687 20.472656 0 40.691406 7.441406 57.117188 19.511718 1.429687 1.054688 3.050781 1.851563 4.964844 1.851563 1.648437.003906 3.261718-.542969 4.574218-1.542969 16.246094-12.433594 36.699219-19.71875 57.179688-19.71875 28.628906 0 52.660156 13.789063 72.3125 33.683594 24.277344 24.605469 40.234375 55.285156 45.996094 88.167969 1.773437 10.167969 2.578124 20.5 2.371093 30.820312 0 .0625-.003906.125-.003906.191407-11.320313 12.878906-21.21875 22.460937-30.203125 29.125-9.09375 6.671874-18.496094 11.25-27.945312 11.980468-15.023438 1.050782-29.34375-6.675781-42.5625-12.789062-16.484376-7.625-36.496094-16.878906-63.554688-22.820313-3.992188-.878906-8.007812-1.652343-12.039062-2.328125-6.566407-1.097656-13.117188-.03125-19.554688 1.347656-29.472656 5.859376-50.84375 15.742188-68.269531 23.800782-14.164063 6.550781-30.101563 15.117187-46.226563 12.375-5.570312-.949219-11.363281-3.246094-17.574218-7.023438-9.519532-5.851562-21.382813-16.03125-36.796876-33.539062-.035156-.042969-.074218-.085938-.113281-.132813-.042969-2.882812-.050781-5.765625.046875-8.648437zm-14.550781-8.40625c-.136719 1.78125-.246094 3.570312-.328125 5.363281-.894531 19.4375 1.367188 39 6.8125 57.683594-16.5-1.410157-29.5-15.292969-29.5-32.152344 0-14.460937 9.746094-26.875 23.015625-30.894531zm0 0"/></svg>